<mxfile host="app.diagrams.net" modified="2023-04-17T03:28:23.578Z" agent="Mozilla/5.0 (Macintosh; Intel Mac OS X 10.15; rv:109.0) Gecko/20100101 Firefox/112.0" etag="SX-bXeW2Wn7aBhAMOK1l" version="21.1.8" type="github">
  <diagram name="第 1 页" id="RWDMs6F6Df38Sap4M6wu">
    <mxGraphModel dx="1466" dy="1096" grid="1" gridSize="10" guides="1" tooltips="1" connect="1" arrows="1" fold="1" page="1" pageScale="1" pageWidth="827" pageHeight="1169" math="0" shadow="0">
      <root>
        <mxCell id="0" />
        <mxCell id="1" parent="0" />
        <mxCell id="IBQQdWjXkxg0jBaJKuKC-2" value="FRA" style="rounded=1;whiteSpace=wrap;html=1;fillColor=#dae8fc;strokeColor=#6c8ebf;" parent="1" vertex="1">
          <mxGeometry x="120" y="170" width="120" height="60" as="geometry" />
        </mxCell>
        <mxCell id="IBQQdWjXkxg0jBaJKuKC-4" value="AMS" style="rounded=1;whiteSpace=wrap;html=1;fillColor=#dae8fc;strokeColor=#6c8ebf;" parent="1" vertex="1">
          <mxGeometry x="300" y="170" width="120" height="60" as="geometry" />
        </mxCell>
        <mxCell id="IBQQdWjXkxg0jBaJKuKC-5" value="AMS2" style="rounded=1;whiteSpace=wrap;html=1;fillColor=#dae8fc;strokeColor=#6c8ebf;" parent="1" vertex="1">
          <mxGeometry x="300" y="330" width="120" height="60" as="geometry" />
        </mxCell>
        <mxCell id="IBQQdWjXkxg0jBaJKuKC-6" value="" style="endArrow=none;html=1;rounded=0;entryX=0.5;entryY=1;entryDx=0;entryDy=0;exitX=0.5;exitY=0;exitDx=0;exitDy=0;" parent="1" source="IBQQdWjXkxg0jBaJKuKC-5" target="IBQQdWjXkxg0jBaJKuKC-4" edge="1">
          <mxGeometry width="50" height="50" relative="1" as="geometry">
            <mxPoint x="420" y="360" as="sourcePoint" />
            <mxPoint x="470" y="310" as="targetPoint" />
          </mxGeometry>
        </mxCell>
        <mxCell id="IBQQdWjXkxg0jBaJKuKC-7" value="" style="endArrow=none;html=1;rounded=0;entryX=1;entryY=0.5;entryDx=0;entryDy=0;exitX=0;exitY=0.5;exitDx=0;exitDy=0;" parent="1" source="IBQQdWjXkxg0jBaJKuKC-4" target="IBQQdWjXkxg0jBaJKuKC-2" edge="1">
          <mxGeometry width="50" height="50" relative="1" as="geometry">
            <mxPoint x="510" y="390" as="sourcePoint" />
            <mxPoint x="470" y="310" as="targetPoint" />
          </mxGeometry>
        </mxCell>
        <mxCell id="IBQQdWjXkxg0jBaJKuKC-8" value="" style="endArrow=none;html=1;rounded=0;entryX=0.567;entryY=1.033;entryDx=0;entryDy=0;entryPerimeter=0;exitX=0.5;exitY=0;exitDx=0;exitDy=0;" parent="1" source="IBQQdWjXkxg0jBaJKuKC-5" target="IBQQdWjXkxg0jBaJKuKC-2" edge="1">
          <mxGeometry width="50" height="50" relative="1" as="geometry">
            <mxPoint x="420" y="360" as="sourcePoint" />
            <mxPoint x="470" y="310" as="targetPoint" />
          </mxGeometry>
        </mxCell>
        <mxCell id="IBQQdWjXkxg0jBaJKuKC-9" value="FMT" style="rounded=1;whiteSpace=wrap;html=1;fillColor=#d5e8d4;strokeColor=#82b366;" parent="1" vertex="1">
          <mxGeometry x="1460" y="380" width="120" height="60" as="geometry" />
        </mxCell>
        <mxCell id="IBQQdWjXkxg0jBaJKuKC-10" value="MCI" style="rounded=1;whiteSpace=wrap;html=1;fillColor=#d5e8d4;strokeColor=#82b366;" parent="1" vertex="1">
          <mxGeometry x="1790" y="460" width="120" height="60" as="geometry" />
        </mxCell>
        <mxCell id="IBQQdWjXkxg0jBaJKuKC-11" value="SEA" style="rounded=1;whiteSpace=wrap;html=1;fillColor=#d5e8d4;strokeColor=#82b366;" parent="1" vertex="1">
          <mxGeometry x="1390" y="230" width="120" height="60" as="geometry" />
        </mxCell>
        <mxCell id="IBQQdWjXkxg0jBaJKuKC-13" value="LAX" style="rounded=1;whiteSpace=wrap;html=1;fillColor=#d5e8d4;strokeColor=#82b366;" parent="1" vertex="1">
          <mxGeometry x="1230" y="660" width="120" height="60" as="geometry" />
        </mxCell>
        <mxCell id="IBQQdWjXkxg0jBaJKuKC-14" value="RR-DAL" style="rounded=1;whiteSpace=wrap;html=1;fillColor=#e1d5e7;strokeColor=#9673a6;" parent="1" vertex="1">
          <mxGeometry x="1710" y="660" width="120" height="60" as="geometry" />
        </mxCell>
        <mxCell id="IBQQdWjXkxg0jBaJKuKC-15" value="" style="endArrow=none;html=1;rounded=0;exitX=0.5;exitY=0;exitDx=0;exitDy=0;entryX=0.5;entryY=1;entryDx=0;entryDy=0;" parent="1" source="IBQQdWjXkxg0jBaJKuKC-13" target="IBQQdWjXkxg0jBaJKuKC-12" edge="1">
          <mxGeometry width="50" height="50" relative="1" as="geometry">
            <mxPoint x="1170" y="520" as="sourcePoint" />
            <mxPoint x="1220" y="470" as="targetPoint" />
          </mxGeometry>
        </mxCell>
        <mxCell id="IBQQdWjXkxg0jBaJKuKC-16" value="" style="endArrow=none;html=1;rounded=0;exitX=0.25;exitY=0;exitDx=0;exitDy=0;entryX=0.5;entryY=1;entryDx=0;entryDy=0;" parent="1" source="IBQQdWjXkxg0jBaJKuKC-13" target="IBQQdWjXkxg0jBaJKuKC-9" edge="1">
          <mxGeometry width="50" height="50" relative="1" as="geometry">
            <mxPoint x="1300" y="540" as="sourcePoint" />
            <mxPoint x="1350" y="490" as="targetPoint" />
          </mxGeometry>
        </mxCell>
        <mxCell id="IBQQdWjXkxg0jBaJKuKC-18" value="" style="endArrow=none;html=1;rounded=0;exitX=1;exitY=0.5;exitDx=0;exitDy=0;entryX=0;entryY=0.5;entryDx=0;entryDy=0;" parent="1" source="IBQQdWjXkxg0jBaJKuKC-9" target="IBQQdWjXkxg0jBaJKuKC-10" edge="1">
          <mxGeometry width="50" height="50" relative="1" as="geometry">
            <mxPoint x="1610" y="550" as="sourcePoint" />
            <mxPoint x="1660" y="500" as="targetPoint" />
          </mxGeometry>
        </mxCell>
        <mxCell id="IBQQdWjXkxg0jBaJKuKC-19" value="" style="endArrow=none;html=1;rounded=0;" parent="1" source="IBQQdWjXkxg0jBaJKuKC-9" target="IBQQdWjXkxg0jBaJKuKC-14" edge="1">
          <mxGeometry width="50" height="50" relative="1" as="geometry">
            <mxPoint x="1610" y="550" as="sourcePoint" />
            <mxPoint x="1660" y="500" as="targetPoint" />
          </mxGeometry>
        </mxCell>
        <mxCell id="IBQQdWjXkxg0jBaJKuKC-20" value="" style="endArrow=none;html=1;rounded=0;exitX=0;exitY=0.5;exitDx=0;exitDy=0;entryX=1;entryY=0.5;entryDx=0;entryDy=0;" parent="1" source="IBQQdWjXkxg0jBaJKuKC-9" target="IBQQdWjXkxg0jBaJKuKC-4" edge="1">
          <mxGeometry width="50" height="50" relative="1" as="geometry">
            <mxPoint x="1610" y="550" as="sourcePoint" />
            <mxPoint x="470" y="210" as="targetPoint" />
          </mxGeometry>
        </mxCell>
        <mxCell id="IBQQdWjXkxg0jBaJKuKC-22" value="" style="endArrow=none;html=1;rounded=0;exitX=0.5;exitY=0;exitDx=0;exitDy=0;entryX=0.5;entryY=1;entryDx=0;entryDy=0;" parent="1" source="IBQQdWjXkxg0jBaJKuKC-12" target="IBQQdWjXkxg0jBaJKuKC-9" edge="1">
          <mxGeometry width="50" height="50" relative="1" as="geometry">
            <mxPoint x="1680" y="360" as="sourcePoint" />
            <mxPoint x="1730" y="310" as="targetPoint" />
          </mxGeometry>
        </mxCell>
        <mxCell id="IBQQdWjXkxg0jBaJKuKC-23" value="" style="endArrow=none;html=1;rounded=0;exitX=1;exitY=0.5;exitDx=0;exitDy=0;" parent="1" source="IBQQdWjXkxg0jBaJKuKC-13" target="IBQQdWjXkxg0jBaJKuKC-14" edge="1">
          <mxGeometry width="50" height="50" relative="1" as="geometry">
            <mxPoint x="1560" y="450" as="sourcePoint" />
            <mxPoint x="1740" y="580" as="targetPoint" />
          </mxGeometry>
        </mxCell>
        <mxCell id="IBQQdWjXkxg0jBaJKuKC-24" value="" style="endArrow=none;html=1;rounded=0;" parent="1" source="IBQQdWjXkxg0jBaJKuKC-14" target="IBQQdWjXkxg0jBaJKuKC-11" edge="1">
          <mxGeometry width="50" height="50" relative="1" as="geometry">
            <mxPoint x="1560" y="450" as="sourcePoint" />
            <mxPoint x="1610" y="400" as="targetPoint" />
          </mxGeometry>
        </mxCell>
        <mxCell id="IBQQdWjXkxg0jBaJKuKC-25" value="" style="endArrow=none;html=1;rounded=0;exitX=0.75;exitY=0;exitDx=0;exitDy=0;" parent="1" source="IBQQdWjXkxg0jBaJKuKC-14" target="IBQQdWjXkxg0jBaJKuKC-10" edge="1">
          <mxGeometry width="50" height="50" relative="1" as="geometry">
            <mxPoint x="1560" y="450" as="sourcePoint" />
            <mxPoint x="1610" y="400" as="targetPoint" />
          </mxGeometry>
        </mxCell>
        <mxCell id="IBQQdWjXkxg0jBaJKuKC-26" value="RR-SEL" style="rounded=1;whiteSpace=wrap;html=1;fillColor=#e1d5e7;strokeColor=#9673a6;" parent="1" vertex="1">
          <mxGeometry x="940" y="330" width="120" height="60" as="geometry" />
        </mxCell>
        <mxCell id="IBQQdWjXkxg0jBaJKuKC-27" value="" style="endArrow=none;html=1;rounded=0;startArrow=none;" parent="1" source="IBQQdWjXkxg0jBaJKuKC-12" target="IBQQdWjXkxg0jBaJKuKC-14" edge="1">
          <mxGeometry width="50" height="50" relative="1" as="geometry">
            <mxPoint x="1380" y="450" as="sourcePoint" />
            <mxPoint x="1430" y="400" as="targetPoint" />
          </mxGeometry>
        </mxCell>
        <mxCell id="IBQQdWjXkxg0jBaJKuKC-28" value="" style="endArrow=none;html=1;rounded=0;" parent="1" source="IBQQdWjXkxg0jBaJKuKC-2" target="IBQQdWjXkxg0jBaJKuKC-26" edge="1">
          <mxGeometry width="50" height="50" relative="1" as="geometry">
            <mxPoint x="580" y="450" as="sourcePoint" />
            <mxPoint x="630" y="400" as="targetPoint" />
          </mxGeometry>
        </mxCell>
        <mxCell id="IBQQdWjXkxg0jBaJKuKC-29" value="" style="endArrow=none;html=1;rounded=0;startArrow=none;" parent="1" source="IBQQdWjXkxg0jBaJKuKC-12" target="IBQQdWjXkxg0jBaJKuKC-11" edge="1">
          <mxGeometry width="50" height="50" relative="1" as="geometry">
            <mxPoint x="1410" y="450" as="sourcePoint" />
            <mxPoint x="1460" y="400" as="targetPoint" />
          </mxGeometry>
        </mxCell>
        <mxCell id="IBQQdWjXkxg0jBaJKuKC-30" value="" style="endArrow=none;html=1;rounded=0;" parent="1" source="IBQQdWjXkxg0jBaJKuKC-11" target="IBQQdWjXkxg0jBaJKuKC-9" edge="1">
          <mxGeometry width="50" height="50" relative="1" as="geometry">
            <mxPoint x="1410" y="450" as="sourcePoint" />
            <mxPoint x="1460" y="400" as="targetPoint" />
          </mxGeometry>
        </mxCell>
        <mxCell id="IBQQdWjXkxg0jBaJKuKC-31" value="" style="endArrow=none;html=1;rounded=0;" parent="1" source="IBQQdWjXkxg0jBaJKuKC-11" target="IBQQdWjXkxg0jBaJKuKC-12" edge="1">
          <mxGeometry width="50" height="50" relative="1" as="geometry">
            <mxPoint x="1410" y="450" as="sourcePoint" />
            <mxPoint x="1460" y="400" as="targetPoint" />
          </mxGeometry>
        </mxCell>
        <mxCell id="IBQQdWjXkxg0jBaJKuKC-32" value="" style="endArrow=none;html=1;rounded=0;" parent="1" source="IBQQdWjXkxg0jBaJKuKC-13" target="IBQQdWjXkxg0jBaJKuKC-12" edge="1">
          <mxGeometry width="50" height="50" relative="1" as="geometry">
            <mxPoint x="1412.5531914893618" y="700" as="sourcePoint" />
            <mxPoint x="1447.4468085106382" y="290" as="targetPoint" />
          </mxGeometry>
        </mxCell>
        <mxCell id="IBQQdWjXkxg0jBaJKuKC-33" value="" style="endArrow=none;html=1;rounded=0;" parent="1" source="IBQQdWjXkxg0jBaJKuKC-2" target="IBQQdWjXkxg0jBaJKuKC-11" edge="1">
          <mxGeometry width="50" height="50" relative="1" as="geometry">
            <mxPoint x="420" y="130" as="sourcePoint" />
            <mxPoint x="770" y="400" as="targetPoint" />
          </mxGeometry>
        </mxCell>
        <mxCell id="IBQQdWjXkxg0jBaJKuKC-34" value="" style="endArrow=none;html=1;rounded=0;" parent="1" source="IBQQdWjXkxg0jBaJKuKC-11" target="IBQQdWjXkxg0jBaJKuKC-10" edge="1">
          <mxGeometry width="50" height="50" relative="1" as="geometry">
            <mxPoint x="1550" y="450" as="sourcePoint" />
            <mxPoint x="1600" y="400" as="targetPoint" />
          </mxGeometry>
        </mxCell>
        <mxCell id="IBQQdWjXkxg0jBaJKuKC-35" value="" style="endArrow=none;html=1;rounded=0;" parent="1" source="IBQQdWjXkxg0jBaJKuKC-10" target="IBQQdWjXkxg0jBaJKuKC-5" edge="1">
          <mxGeometry width="50" height="50" relative="1" as="geometry">
            <mxPoint x="1420" y="450" as="sourcePoint" />
            <mxPoint x="540" y="450" as="targetPoint" />
          </mxGeometry>
        </mxCell>
        <mxCell id="IBQQdWjXkxg0jBaJKuKC-36" value="" style="endArrow=none;html=1;rounded=0;" parent="1" source="IBQQdWjXkxg0jBaJKuKC-26" target="IBQQdWjXkxg0jBaJKuKC-12" edge="1">
          <mxGeometry width="50" height="50" relative="1" as="geometry">
            <mxPoint x="1060" y="386.0526315789473" as="sourcePoint" />
            <mxPoint x="1700" y="663.9473684210525" as="targetPoint" />
          </mxGeometry>
        </mxCell>
        <mxCell id="IBQQdWjXkxg0jBaJKuKC-12" value="SJC" style="rounded=1;whiteSpace=wrap;html=1;fillColor=#d5e8d4;strokeColor=#82b366;" parent="1" vertex="1">
          <mxGeometry x="1360" y="510" width="120" height="60" as="geometry" />
        </mxCell>
        <mxCell id="IBQQdWjXkxg0jBaJKuKC-37" value="&lt;div&gt;HK&lt;/div&gt;" style="rounded=1;whiteSpace=wrap;html=1;fillColor=#b0e3e6;strokeColor=#0e8088;" parent="1" vertex="1">
          <mxGeometry x="730" y="850" width="120" height="60" as="geometry" />
        </mxCell>
        <mxCell id="IBQQdWjXkxg0jBaJKuKC-38" value="SGP" style="rounded=1;whiteSpace=wrap;html=1;fillColor=#b0e3e6;strokeColor=#0e8088;" parent="1" vertex="1">
          <mxGeometry x="850" y="1060" width="120" height="60" as="geometry" />
        </mxCell>
        <mxCell id="IBQQdWjXkxg0jBaJKuKC-39" value="" style="endArrow=none;html=1;rounded=0;exitX=0.551;exitY=1.005;exitDx=0;exitDy=0;exitPerimeter=0;" parent="1" source="IBQQdWjXkxg0jBaJKuKC-37" target="IBQQdWjXkxg0jBaJKuKC-38" edge="1">
          <mxGeometry width="50" height="50" relative="1" as="geometry">
            <mxPoint x="840" y="820" as="sourcePoint" />
            <mxPoint x="890" y="770" as="targetPoint" />
          </mxGeometry>
        </mxCell>
        <mxCell id="IBQQdWjXkxg0jBaJKuKC-40" value="" style="endArrow=none;html=1;rounded=0;" parent="1" source="IBQQdWjXkxg0jBaJKuKC-37" target="IBQQdWjXkxg0jBaJKuKC-13" edge="1">
          <mxGeometry width="50" height="50" relative="1" as="geometry">
            <mxPoint x="1130" y="820" as="sourcePoint" />
            <mxPoint x="1180" y="770" as="targetPoint" />
          </mxGeometry>
        </mxCell>
        <mxCell id="IBQQdWjXkxg0jBaJKuKC-41" value="" style="endArrow=none;html=1;rounded=0;" parent="1" source="IBQQdWjXkxg0jBaJKuKC-37" target="IBQQdWjXkxg0jBaJKuKC-26" edge="1">
          <mxGeometry width="50" height="50" relative="1" as="geometry">
            <mxPoint x="1130" y="720" as="sourcePoint" />
            <mxPoint x="1180" y="670" as="targetPoint" />
          </mxGeometry>
        </mxCell>
        <mxCell id="IBQQdWjXkxg0jBaJKuKC-42" value="" style="endArrow=none;html=1;rounded=0;entryX=0;entryY=0.5;entryDx=0;entryDy=0;" parent="1" source="IBQQdWjXkxg0jBaJKuKC-37" target="IBQQdWjXkxg0jBaJKuKC-12" edge="1">
          <mxGeometry width="50" height="50" relative="1" as="geometry">
            <mxPoint x="1130" y="720" as="sourcePoint" />
            <mxPoint x="1180" y="670" as="targetPoint" />
          </mxGeometry>
        </mxCell>
        <mxCell id="IBQQdWjXkxg0jBaJKuKC-43" value="" style="endArrow=none;html=1;rounded=1;exitX=0;exitY=0.5;exitDx=0;exitDy=0;strokeColor=default;" parent="1" source="IBQQdWjXkxg0jBaJKuKC-37" target="IBQQdWjXkxg0jBaJKuKC-2" edge="1">
          <mxGeometry width="50" height="50" relative="1" as="geometry">
            <mxPoint x="530" y="650" as="sourcePoint" />
            <mxPoint x="580" y="600" as="targetPoint" />
          </mxGeometry>
        </mxCell>
      </root>
    </mxGraphModel>
  </diagram>
</mxfile>
